<?xml version="1.0" encoding="UTF-8"?>
<svg viewBox="0 0 140 190" xmlns="http://www.w3.org/2000/svg">
 <defs>
  <linearGradient id="a" x1="2" x2="109" y1="62.1" y2="127.7" gradientUnits="userSpaceOnUse">
   <stop stop-color="#ebf0d0" offset="0"/>
   <stop stop-color="#ffffeb" offset="1"/>
  </linearGradient>
 </defs>
 <path d="m21 5h103c8.864 0 16 7.136 16 16v153c0 8.864-7.136 16-16 16h-103c-8.864 0-16-7.136-16-16v-153c0-8.864 7.136-16 16-16z" fill-opacity=".49804"/>
 <path d="m17 1h103c8.864 0 16 7.136 16 16v153c0 8.864-7.136 16-16 16h-103c-8.864 0-16-7.136-16-16v-153c0-8.864 7.136-16 16-16z" fill="#fff"/>
 <path d="m19 3h103c8.864 0 16 7.136 16 16v153c0 8.864-7.136 16-16 16h-103c-8.864 0-16-7.136-16-16v-153c0-8.864 7.136-16 16-16z" fill="#c7891f"/>
 <path d="m18 2h103c8.864 0 16 7.136 16 16v153c0 8.864-7.136 16-16 16h-103c-8.864 0-16-7.136-16-16v-153c0-8.864 7.136-16 16-16z" fill="url(#a)"/>
 <path d="m103.53125,21c-.49728.00194-.9726.09931-1.4375.28125-.9298.36388-1.73845,1.1114-2.03125,2.1875-.17557.64526-.12276,1.38092.1875,2s.93159,1.11934 1.75,1.125c.47552.00329.84996-.1962 1.15625-.53125 .15315-.16753.31341-.41588.3125-.71875s-.20998-.58273-.46875-.75l-.53125.8125c.07009.04531.00017-.00496 0-.0625s.01723-.02179-.03125.03125c-.09695.10606-.45498.21863-.4375.21875-.42286-.00293-.65496-.21705-.84375-.59375s-.22731-.90525-.125-1.28125c.20426-.7507.71786-1.23059 1.40625-1.5s1.55215-.2977 2.25-.03125c2.11599.8079 2.82469,3.42928 1.9375,5.4375-.77925,1.76385-2.58067,2.82959-4.5,2.90625l-62.78125.375v1l62.5625-.375v.0625c.07809.00035.14087-.05998.21875-.0625h.34375v-.09375c2.16345-.19422 4.19059-1.36191 5.09375-3.40625 1.10087-2.49188.1434-5.74812-2.5625-6.78125-.4725-.1804-.97148-.25194-1.46875-.25zm11.40625,3.03125c-.67184.02277-1.34578.16228-1.96875.4375-2.04434.90316-3.21203,2.9303-3.40625,5.09375h-.09375v.34375c-.00252.07788-.06285.14066-.0625.21875h.0625l.25,69.09375h1l-.25-69.3125c.07667-1.91933 1.1424-3.72075 2.90625-4.5 2.00822-.88719 4.6296-.17849 5.4375,1.9375 .26645.69785.23816,1.56161-.03125,2.25s-.7493,1.20199-1.5,1.40625c-.376.10231-.90455.06379-1.28125-.125s-.59082-.42089-.59375-.84375c.00012.01748.11269-.34055.21875-.4375 .05304-.04848.08879-.03107.03125-.03125s-.10781-.07009-.0625,0l.8125-.53125c-.16727-.25877-.44713-.46784-.75-.46875s-.55122.15935-.71875.3125c-.33505.30629-.53454.68073-.53125,1.15625 .00566.81841.50592,1.43974 1.125,1.75s1.35474.36307 2,.1875c1.0761-.2928 1.82362-1.10145 2.1875-2.03125 .18194-.4649.27931-.94022.28125-1.4375s-.0696-.99625-.25-1.46875c-.77485-2.02942-2.79699-3.0683-4.8125-3zm-85.65625,65.96875 .25,69.3125c-.07667,1.91933-1.1424,3.72074-2.90625,4.5-2.00822.88719-4.6296.17848-5.4375-1.9375-.26645-.69785-.23816-1.56162.03125-2.25s.7493-1.202 1.5-1.40625c.376-.10231.90455-.0638 1.28125.125s.59082.42088.59375.84375c-.00012-.01748-.11269.34054-.21875.4375-.05304.04848-.08879.03106-.03125.03125s.10781.07008.0625,0l-.8125.53125c.16727.25877.44713.46783.75.46875s.55122-.15936.71875-.3125c.33505-.30629.53454-.68074.53125-1.15625-.00566-.81841-.50592-1.43975-1.125-1.75s-1.35474-.36308-2-.1875c-1.0761.2928-1.82362,1.10144-2.1875,2.03125-.18194.4649-.27931.94021-.28125,1.4375s.0696.99624.25,1.46875c1.03313,2.7059 4.28937,3.66336 6.78125,2.5625 2.04434-.90316 3.21203-2.93031 3.40625-5.09375h.09375v-.34375c.00252-.07788.06285-.14067.0625-.21875h-.0625l-.25-69.09375h-1zm71.375,67.3125-62.5625.375v-.0625c-.07809-.00035-.14087.05998-.21875.0625h-.34375v.09375c-2.16345.19422-4.19059,1.36191-5.09375,3.40625-1.10087,2.49189-.1434,5.74812 2.5625,6.78125 .4725.1804.97148.25194 1.46875.25s.9726-.09931 1.4375-.28125c.9298-.36388 1.73845-1.1114 2.03125-2.1875 .17556-.64526.12276-1.38092-.1875-2s-.93159-1.11934-1.75-1.125c-.47552-.00329-.84996.1962-1.15625.53125-.15315.16753-.31341.41588-.3125.71875s.20998.58273.46875.75l.53125-.8125c-.07009-.04531-.00017.00496 0,.0625s-.01723.02179.03125-.03125c.09695-.10606.45498-.21863.4375-.21875 .42286.00293.65496.21705.84375.59375s.22731.90525.125,1.28125c-.20426.7507-.71786,1.2306-1.40625,1.5s-1.55215.2977-2.25.03125c-2.11599-.8079-2.82469-3.42928-1.9375-5.4375 .77925-1.76385 2.58067-2.82958 4.5-2.90625l62.78125-.375v-1z" fill="#9f0000" fill-rule="evenodd"/>
 <path d="m12.094 41.839v-5.5458c1.0189 0.57603 1.9936 1.0114 2.9239 1.3061 0.93033 0.28131 1.8496 0.42197 2.7578 0.42196 1.905 1e-5 3.3891-0.63629 4.4523-1.9089 1.0632-1.286 1.689-3.1882 1.8773-5.7066-0.75315 0.66979-1.5561 1.1721-2.4089 1.507s-1.7776 0.50235-2.7744 0.50234c-2.5363 1e-5 -4.5853-0.8908-6.1469-2.6724-1.5506-1.795-2.3259-4.1526-2.3258-7.0729-1e-5 -3.2284 0.86388-5.8137 2.5917-7.7561 1.7388-1.9423 4.0647-2.9135 6.9776-2.9136 3.234 3e-5 5.7371 1.3195 7.5092 3.9584s2.6581 6.3697 2.6581 11.192c-3e-5 4.9564-1.0356 8.8546-3.1067 11.694-2.0711 2.8265-4.912 4.2398-8.5226 4.2398-1.1629 0-2.276-0.10717-3.3393-0.32151-1.0632-0.20093-2.1043-0.50903-3.1233-0.9243m7.8913-14.447c1.1186 1e-5 1.9604-0.43534 2.5252-1.3061 0.56484-0.88409 0.84726-2.2036 0.84728-3.9584-2e-5 -1.7414-0.28244-3.0542-0.84728-3.9383s-1.4066-1.3262-2.5252-1.3262-1.9604 0.44208-2.5252 1.3262-0.84728 2.1969-0.84727 3.9383c-1e-5 1.7549 0.28241 3.0743 0.84727 3.9584 0.56485 0.87074 1.4066 1.3061 2.5252 1.3061" fill="#0c0c0c"/>
 <path d="m126.52 147.59v5.5458c-1.0189-0.57602-1.9936-1.0114-2.9239-1.3061-0.93034-0.28132-1.8496-0.42197-2.7578-0.42197-1.905 0-3.3891 0.6363-4.4523 1.9089-1.0632 1.286-1.689 3.1882-1.8773 5.7066 0.75315-0.66979 1.5561-1.1721 2.4089-1.507s1.7776-0.50235 2.7744-0.50234c2.5363-1e-5 4.5853 0.8908 6.1469 2.6724 1.5506 1.795 2.3259 4.1526 2.3258 7.0729 1e-5 3.2284-0.86388 5.8137-2.5917 7.7561-1.7388 1.9424-4.0647 2.9135-6.9776 2.9136-3.234-3e-5 -5.7371-1.3195-7.5092-3.9584s-2.6581-6.3697-2.6581-11.192c3e-5 -4.9564 1.0356-8.8546 3.1067-11.694 2.0711-2.8265 4.912-4.2397 8.5226-4.2397 1.1629 0 2.276 0.10716 3.3393 0.32149 1.0632 0.20094 2.1043 0.50904 3.1233 0.92431m-7.8913 14.447c-1.1186-2e-5 -1.9604 0.43534-2.5252 1.3061-0.56484 0.8841-0.84726 2.2036-0.84728 3.9584 2e-5 1.7414 0.28244 3.0542 0.84728 3.9383s1.4066 1.3262 2.5252 1.3262 1.9604-0.44208 2.5252-1.3262 0.84728-2.1969 0.84728-3.9383c0-1.7549-0.28242-3.0743-0.84728-3.9584-0.56485-0.87074-1.4066-1.3061-2.5252-1.3061" fill="#0c0c0c"/>
 <path d="m20.527 48.665c-2.6664 0-4.8299 3.2635-4.8299 7.2857 0 3.4266 4.3921 9.1917 4.2215 11.93-1.4102 0.78242-5.7673-6.4375-8.019-6.4375-2.6664 0-4.8299 3.2635-4.8299 7.2857s2.1635 7.2857 4.8299 7.2857c2.3125 0 6.2757-7.214 8.019-6.5627l-2.9289 12.874 7.0236-0.04171s-3.077-12.481-3.0808-12.776h0.05531v0.01391c1.7073-0.63971 5.8059 6.6322 8.102 6.6322 2.6664 0 4.8299-3.2635 4.8299-7.2857s-2.1635-7.2857-4.8299-7.2857c-2.2426 0-6.3077 7.1005-8.0928 6.368 0.02508-2.8054 4.3598-8.5763 4.3598-11.999 0-4.0221-2.1635-7.2857-4.8299-7.2857z" fill-rule="evenodd"/>
 <path d="m117.91 139.96c2.6664 0 4.8299-3.2635 4.8299-7.2857 0-3.4266-4.3921-9.1917-4.2215-11.93 1.4102-0.78242 5.7673 6.4375 8.019 6.4375 2.6664 0 4.8299-3.2635 4.8299-7.2857s-2.1635-7.2857-4.8299-7.2857c-2.3125 0-6.2757 7.214-8.019 6.5627l2.9289-12.874-7.0236 0.04171s3.077 12.481 3.0808 12.776h-0.05531v-0.01391c-1.7073 0.63971-5.8059-6.6322-8.102-6.6322-2.6664 0-4.8299 3.2635-4.8299 7.2857s2.1635 7.2857 4.8299 7.2857c2.2426 0 6.3077-7.1005 8.0928-6.368-0.02508 2.8054-4.3598 8.5763-4.3598 11.999 0 4.0221 2.1635 7.2857 4.8299 7.2857z" fill-rule="evenodd"/>
 <path d="m49.199 36c-1.5532 0-2.8134 1.9178-2.8134 4.2814 0 2.0136 2.5584 5.4014 2.459 7.0103-0.82147 0.45978-3.3594-3.783-4.6711-3.783-1.5532 0-2.8134 1.9178-2.8134 4.2814s1.2602 4.2814 2.8134 4.2814c1.347 0 3.6556-4.2392 4.6711-3.8565l-1.7061 7.5651 4.0912-0.02452s-1.7923-7.3345-1.7945-7.5079h0.03221v0.00818c0.9945-0.37593 3.3819 3.8973 4.7194 3.8973 1.5532 0 2.8134-1.9178 2.8134-4.2814s-1.2602-4.2814-2.8134-4.2814c-1.3063 0-3.6742 4.1726-4.714 3.7421 0.01461-1.6486 2.5396-5.0398 2.5396-7.0512 0-2.3636-1.2602-4.2814-2.8134-4.2814z" fill-rule="evenodd"/>
 <path d="m69.199 85c-1.5532 0-2.8134 1.9178-2.8134 4.2814 0 2.0136 2.5584 5.4014 2.459 7.0103-0.82147 0.45978-3.3594-3.783-4.6711-3.783-1.5532 0-2.8134 1.9178-2.8134 4.2814s1.2602 4.2814 2.8134 4.2814c1.347 0 3.6555-4.2392 4.6711-3.8565l-1.7061 7.5651 4.0912-0.02452s-1.7923-7.3345-1.7945-7.5079h0.03222v0.00818c0.99449-0.37592 3.3819 3.8973 4.7194 3.8973 1.5532 0 2.8134-1.9178 2.8134-4.2814s-1.2602-4.2814-2.8134-4.2814c-1.3063 0-3.6742 4.1726-4.714 3.7421 0.01461-1.6486 2.5396-5.0398 2.5396-7.0512 0-2.3636-1.2602-4.2814-2.8134-4.2814z" fill-rule="evenodd"/>
 <path d="m90.199 36.22c-1.5532 0-2.8134 1.9178-2.8134 4.2814 0 2.0136 2.5584 5.4014 2.459 7.0103-0.82146 0.45979-3.3594-3.783-4.6711-3.783-1.5532 0-2.8134 1.9178-2.8134 4.2814s1.2602 4.2814 2.8134 4.2814c1.347 0 3.6555-4.2392 4.6711-3.8565l-1.7061 7.5651 4.0912-0.02451s-1.7923-7.3345-1.7945-7.5079h0.03222v0.00817c0.99449-0.37592 3.3819 3.8973 4.7194 3.8974 1.5532 0 2.8134-1.9178 2.8134-4.2814s-1.2602-4.2814-2.8134-4.2814c-1.3063 0-3.6742 4.1726-4.714 3.7421 0.0146-1.6486 2.5396-5.0398 2.5396-7.0512 0-2.3636-1.2602-4.2814-2.8134-4.2814z" fill-rule="evenodd"/>
 <path d="m48.839 71.22c-1.5532 0-2.8134 1.9178-2.8134 4.2814 0 2.0136 2.5584 5.4014 2.459 7.0103-0.82147 0.45978-3.3594-3.783-4.6711-3.783-1.5532 0-2.8134 1.9178-2.8134 4.2814s1.2602 4.2814 2.8134 4.2814c1.347 0 3.6555-4.2392 4.6711-3.8565l-1.7061 7.5651 4.0912-0.02452s-1.7923-7.3344-1.7945-7.5079h0.03222v0.00819c0.99449-0.37592 3.3819 3.8973 4.7194 3.8973 1.5532 0 2.8134-1.9178 2.8134-4.2814s-1.2602-4.2814-2.8134-4.2814c-1.3063 0-3.6742 4.1726-4.714 3.7421 0.01461-1.6486 2.5396-5.0398 2.5396-7.0512 0-2.3636-1.2602-4.2814-2.8134-4.2814z" fill-rule="evenodd"/>
 <path d="m88.199 70c-1.5532 0-2.8134 1.9178-2.8134 4.2814 0 2.0136 2.5584 5.4014 2.459 7.0103-0.82146 0.45978-3.3594-3.783-4.6711-3.783-1.5532 0-2.8134 1.9178-2.8134 4.2814s1.2602 4.2814 2.8134 4.2814c1.347 0 3.6555-4.2392 4.6711-3.8565l-1.7061 7.5651 4.0912-0.02451s-1.7923-7.3345-1.7945-7.5079h0.03221v0.00818c0.9945-0.37593 3.3819 3.8973 4.7194 3.8973 1.5532 0 2.8134-1.9178 2.8134-4.2814s-1.2602-4.2814-2.8134-4.2814c-1.3063 0-3.6742 4.1726-4.714 3.7421 0.01461-1.6486 2.5396-5.0398 2.5396-7.0512 0-2.3636-1.2602-4.2814-2.8134-4.2814z" fill-rule="evenodd"/>
 <path d="m48.161 119c1.5532 0 2.8134-1.9178 2.8134-4.2814 0-2.0136-2.5584-5.4014-2.459-7.0103 0.82147-0.45979 3.3594 3.783 4.6711 3.783 1.5532 0 2.8134-1.9178 2.8134-4.2814s-1.2602-4.2814-2.8134-4.2814c-1.347 0-3.6556 4.2392-4.6711 3.8565l1.7061-7.565-4.0912 0.02451s1.7923 7.3345 1.7945 7.5079h-0.03221v-0.00817c-0.9945 0.37592-3.3819-3.8973-4.7194-3.8973-1.5532 0-2.8134 1.9178-2.8134 4.2814s1.2602 4.2814 2.8134 4.2814c1.3063 0 3.6742-4.1726 4.714-3.7421-0.01461 1.6486-2.5396 5.0398-2.5396 7.0512 0 2.3636 1.2602 4.2814 2.8134 4.2814z" fill-rule="evenodd"/>
 <path d="m89.801 119.78c1.5532 0 2.8134-1.9178 2.8134-4.2814 0-2.0136-2.5584-5.4014-2.459-7.0103 0.82147-0.45978 3.3594 3.783 4.6711 3.783 1.5532 0 2.8134-1.9178 2.8134-4.2814s-1.2602-4.2814-2.8134-4.2814c-1.347 0-3.6556 4.2392-4.6711 3.8565l1.7061-7.5651-4.0912 0.02451s1.7923 7.3345 1.7945 7.5079h-0.03221v-0.00818c-0.9945 0.37593-3.3819-3.8973-4.7194-3.8973-1.5532 0-2.8134 1.9178-2.8134 4.2814s1.2602 4.2814 2.8134 4.2814c1.3063 0 3.6742-4.1726 4.714-3.7421-0.01461 1.6486-2.5396 5.0398-2.5396 7.0512 0 2.3636 1.2602 4.2814 2.8134 4.2814z" fill-rule="evenodd"/>
 <path d="m90.161 149.78c1.5532 0 2.8134-1.9178 2.8134-4.2814 0-2.0136-2.5584-5.4014-2.459-7.0103 0.82146-0.45978 3.3594 3.783 4.6711 3.783 1.5532 0 2.8134-1.9178 2.8134-4.2814s-1.2602-4.2814-2.8134-4.2814c-1.347 0-3.6556 4.2392-4.6711 3.8565l1.7061-7.5651-4.0912 0.02451s1.7923 7.3345 1.7945 7.5079h-0.03221v-0.00817c-0.9945 0.37592-3.3819-3.8973-4.7194-3.8973-1.5532 0-2.8134 1.9178-2.8134 4.2814s1.2602 4.2814 2.8134 4.2814c1.3063 0 3.6742-4.1726 4.714-3.7421-0.01461 1.6486-2.5396 5.0398-2.5396 7.0512 0 2.3636 1.2602 4.2814 2.8134 4.2814z" fill-rule="evenodd"/>
 <path d="m49.161 149.78c1.5532 0 2.8134-1.9178 2.8134-4.2814 0-2.0136-2.5584-5.4014-2.459-7.0103 0.82146-0.45978 3.3594 3.783 4.6711 3.783 1.5532 0 2.8134-1.9178 2.8134-4.2814s-1.2602-4.2814-2.8134-4.2814c-1.347 0-3.6555 4.2392-4.6711 3.8565l1.7061-7.5651-4.0912 0.02452s1.7923 7.3345 1.7945 7.5079h-0.03221v-0.00818c-0.9945 0.37592-3.3819-3.8973-4.7194-3.8973-1.5532 0-2.8134 1.9178-2.8134 4.2814s1.2602 4.2814 2.8134 4.2814c1.3063 0 3.6742-4.1726 4.714-3.7421-0.01461 1.6486-2.5396 5.0398-2.5396 7.0512 0 2.3636 1.2602 4.2814 2.8134 4.2814z" fill-rule="evenodd"/>
</svg>
