<?xml version="1.0" encoding="UTF-8"?>
<svg viewBox="0 0 140 190" xmlns="http://www.w3.org/2000/svg" xmlns:xlink="http://www.w3.org/1999/xlink">
 <defs>
  <linearGradient id="d" x1="2" x2="109" y1="62.1" y2="127.7" gradientUnits="userSpaceOnUse">
   <stop stop-color="#ebf0d0" offset="0"/>
   <stop stop-color="#ffffeb" offset="1"/>
  </linearGradient>
  <linearGradient id="b">
   <stop stop-color="#008200" offset="0"/>
   <stop stop-color="#00d000" offset="1"/>
  </linearGradient>
  <linearGradient id="a">
   <stop stop-color="#f0eb00" offset="0"/>
   <stop stop-color="#ff0" offset="1"/>
  </linearGradient>
  <linearGradient id="c">
   <stop stop-color="#0083cc" offset="0"/>
   <stop stop-color="#24a4cc" offset="1"/>
  </linearGradient>
  <linearGradient id="j" x1="356.44" x2="484.8" y1="437.5" y2="256.18" gradientTransform="matrix(.18681 0 0 .14486 -4.5783 37.11)" gradientUnits="userSpaceOnUse">
   <stop stop-color="#ffd8c1" offset="0"/>
   <stop stop-color="#ffeded" offset="1"/>
  </linearGradient>
  <linearGradient id="e" x1="142.74" x2="95.059" y1="28.209" y2="67.841" gradientTransform="scale(.72933 1.3711)" gradientUnits="userSpaceOnUse">
   <stop stop-color="#fff" offset="0"/>
   <stop stop-color="#fff" stop-opacity="0" offset="1"/>
  </linearGradient>
  <linearGradient id="p" x1="61.61" x2="75.827" y1="75.541" y2="73.243" gradientUnits="userSpaceOnUse" xlink:href="#a"/>
  <linearGradient id="o" x1="90.466" x2="92.547" y1="60.536" y2="58.956" gradientUnits="userSpaceOnUse" xlink:href="#a"/>
  <linearGradient id="n" x1="45.456" x2="47.537" y1="64.413" y2="62.833" gradientUnits="userSpaceOnUse" xlink:href="#a"/>
  <linearGradient id="m" x1="55.075" x2="57.157" y1="55.151" y2="53.572" gradientUnits="userSpaceOnUse" xlink:href="#a"/>
  <linearGradient id="l" x1="58.577" x2="78.799" y1="69.455" y2="61.455" gradientUnits="userSpaceOnUse" xlink:href="#b"/>
  <linearGradient id="k" x1="61.39" x2="64.533" y1="99.18" y2="95.483" gradientUnits="userSpaceOnUse" xlink:href="#b"/>
  <linearGradient id="i" x1="47.729" x2="89.828" gradientUnits="userSpaceOnUse" xlink:href="#c"/>
  <linearGradient id="h" x1="64.492" x2="67.276" y1="121.95" y2="121.55" gradientUnits="userSpaceOnUse" xlink:href="#a"/>
  <linearGradient id="g" x1="63.211" x2="68.602" y1="122.17" y2="120.54" gradientUnits="userSpaceOnUse" xlink:href="#c"/>
  <linearGradient id="f" x1="61.656" x2="83.431" y1="128.71" y2="110.6" gradientUnits="userSpaceOnUse" xlink:href="#b"/>
 </defs>
 <path d="m21 5h103c8.864 0 16 7.136 16 16v153c0 8.864-7.136 16-16 16h-103c-8.864 0-16-7.136-16-16v-153c0-8.864 7.136-16 16-16z" fill-opacity=".49804"/>
 <path d="m17 1h103c8.864 0 16 7.136 16 16v153c0 8.864-7.136 16-16 16h-103c-8.864 0-16-7.136-16-16v-153c0-8.864 7.136-16 16-16z" fill="#fff"/>
 <path d="m19 3h103c8.864 0 16 7.136 16 16v153c0 8.864-7.136 16-16 16h-103c-8.864 0-16-7.136-16-16v-153c0-8.864 7.136-16 16-16z" fill="#c7891f"/>
 <path d="m18 2h103c8.864 0 16 7.136 16 16v153c0 8.864-7.136 16-16 16h-103c-8.864 0-16-7.136-16-16v-153c0-8.864 7.136-16 16-16z" fill="url(#d)"/>
 <path d="m103.53125,21c-.49728.00194-.9726.09931-1.4375.28125-.9298.36388-1.73845,1.1114-2.03125,2.1875-.17557.64526-.12276,1.38092.1875,2s.93159,1.11934 1.75,1.125c.47552.00329.84996-.1962 1.15625-.53125 .15315-.16753.31341-.41588.3125-.71875s-.20998-.58273-.46875-.75l-.53125.8125c.07009.04531.00017-.00496 0-.0625s.01723-.02179-.03125.03125c-.09695.10606-.45498.21863-.4375.21875-.42286-.00293-.65496-.21705-.84375-.59375s-.22731-.90525-.125-1.28125c.20426-.7507.71786-1.23059 1.40625-1.5s1.55215-.2977 2.25-.03125c2.11599.8079 2.82469,3.42928 1.9375,5.4375-.77925,1.76385-2.58067,2.82959-4.5,2.90625l-62.78125.375v1l62.5625-.375v.0625c.07809.00035.14087-.05998.21875-.0625h.34375v-.09375c2.16345-.19422 4.19059-1.36191 5.09375-3.40625 1.10087-2.49188.1434-5.74812-2.5625-6.78125-.4725-.1804-.97148-.25194-1.46875-.25zm11.40625,3.03125c-.67184.02277-1.34578.16228-1.96875.4375-2.04434.90316-3.21203,2.9303-3.40625,5.09375h-.09375v.34375c-.00252.07788-.06285.14066-.0625.21875h.0625l.25,69.09375h1l-.25-69.3125c.07667-1.91933 1.1424-3.72075 2.90625-4.5 2.00822-.88719 4.6296-.17849 5.4375,1.9375 .26645.69785.23816,1.56161-.03125,2.25s-.7493,1.20199-1.5,1.40625c-.376.10231-.90455.06379-1.28125-.125s-.59082-.42089-.59375-.84375c.00012.01748.11269-.34055.21875-.4375 .05304-.04848.08879-.03107.03125-.03125s-.10781-.07009-.0625,0l.8125-.53125c-.16727-.25877-.44713-.46784-.75-.46875s-.55122.15935-.71875.3125c-.33505.30629-.53454.68073-.53125,1.15625 .00566.81841.50592,1.43974 1.125,1.75s1.35474.36307 2,.1875c1.0761-.2928 1.82362-1.10145 2.1875-2.03125 .18194-.4649.27931-.94022.28125-1.4375s-.0696-.99625-.25-1.46875c-.77485-2.02942-2.79699-3.0683-4.8125-3zm-85.65625,65.96875 .25,69.3125c-.07667,1.91933-1.1424,3.72074-2.90625,4.5-2.00822.88719-4.6296.17848-5.4375-1.9375-.26645-.69785-.23816-1.56162.03125-2.25s.7493-1.202 1.5-1.40625c.376-.10231.90455-.0638 1.28125.125s.59082.42088.59375.84375c-.00012-.01748-.11269.34054-.21875.4375-.05304.04848-.08879.03106-.03125.03125s.10781.07008.0625,0l-.8125.53125c.16727.25877.44713.46783.75.46875s.55122-.15936.71875-.3125c.33505-.30629.53454-.68074.53125-1.15625-.00566-.81841-.50592-1.43975-1.125-1.75s-1.35474-.36308-2-.1875c-1.0761.2928-1.82362,1.10144-2.1875,2.03125-.18194.4649-.27931.94021-.28125,1.4375s.0696.99624.25,1.46875c1.03313,2.7059 4.28937,3.66336 6.78125,2.5625 2.04434-.90316 3.21203-2.93031 3.40625-5.09375h.09375v-.34375c.00252-.07788.06285-.14067.0625-.21875h-.0625l-.25-69.09375h-1zm71.375,67.3125-62.5625.375v-.0625c-.07809-.00035-.14087.05998-.21875.0625h-.34375v.09375c-2.16345.19422-4.19059,1.36191-5.09375,3.40625-1.10087,2.49189-.1434,5.74812 2.5625,6.78125 .4725.1804.97148.25194 1.46875.25s.9726-.09931 1.4375-.28125c.9298-.36388 1.73845-1.1114 2.03125-2.1875 .17556-.64526.12276-1.38092-.1875-2s-.93159-1.11934-1.75-1.125c-.47552-.00329-.84996.1962-1.15625.53125-.15315.16753-.31341.41588-.3125.71875s.20998.58273.46875.75l.53125-.8125c-.07009-.04531-.00017.00496 0,.0625s-.01723.02179.03125-.03125c.09695-.10606.45498-.21863.4375-.21875 .42286.00293.65496.21705.84375.59375s.22731.90525.125,1.28125c-.20426.7507-.71786,1.2306-1.40625,1.5s-1.55215.2977-2.25.03125c-2.11599-.8079-2.82469-3.42928-1.9375-5.4375 .77925-1.76385 2.58067-2.82958 4.5-2.90625l62.78125-.375v-1z" fill="#9f0000" fill-rule="evenodd"/>
 <path transform="scale(1.024 .9766)" d="m19.173 12.281h2.9326v10.268c0 1.4168-0.38593 2.4755-1.1578 3.1763s-1.9296 1.0512-3.4886 1.0512h-0.59413v-2.2166h0.45702c0.60936 0 1.0689-0.17012 1.3787-0.51034s0.47226-0.84041 0.47226-1.5006v-10.268m1.4625 17.519c-0.89374 1e-5 -1.5869 0.33008-2.0794 0.99021s-0.73886 1.5894-0.73885 2.7878c0 1.1933 0.24628 2.1201 0.73885 2.7802s1.1857 0.99022 2.0794 0.99021c0.8988 0 1.5945-0.33007 2.0871-0.99021s0.73884-1.5869 0.73885-2.7802c-1e-5 -1.1984-0.24629-2.1277-0.73885-2.7878s-1.1883-0.99021-2.0871-0.99021m0-2.1252c1.8281 1e-5 3.2601 0.52305 4.296 1.5691s1.5539 2.4908 1.5539 4.3341-0.51797 3.2804-1.5539 4.3265-2.4679 1.5691-4.296 1.5691c-1.823 0-3.255-0.52304-4.296-1.5691s-1.5539-2.4882-1.5539-4.3265 0.51796-3.288 1.5539-4.3341 2.473-1.5691 4.296-1.5691m-4.6159 15.805h2.9326v4.1513l4.2275-4.1513h3.4048l-5.4766 5.3852 6.0403 5.987h-3.6714l-4.5245-4.4788v4.4788h-2.9326v-11.372m0.716 15.6h7.9141v2.2166h-4.9815v2.1175h4.6845v2.2166h-4.6845v2.605h5.1491v2.2166h-8.0817v-11.372m3.4962 20.642c0.61444 1e-5 1.0537-0.11425 1.3178-0.34277 0.26913-0.2285 0.4037-0.60428 0.4037-1.1273s-0.13457-0.88865-0.4037-1.1121c-0.26406-0.22342-0.70331-0.33514-1.3178-0.33515h-1.234v2.9173h1.234m-1.234 2.0261v4.3036h-2.9326v-11.372h4.4788c1.498 1e-5 2.5949 0.25137 3.2906 0.75409s1.0511 1.2974 1.0512 2.3841c-1e-5 0.75156-0.18282 1.3685-0.54843 1.8509-0.36055 0.48242-0.90644 0.83788-1.6377 1.0664 0.40116 0.09141 0.75916 0.29961 1.074 0.6246 0.31991 0.31992 0.64236 0.80741 0.96736 1.4625l1.592 3.2296h-3.123l-1.3863-2.8259c-0.2793-0.56874-0.56367-0.95721-0.85311-1.1654-0.28438-0.20819-0.66523-0.31229-1.1426-0.3123h-0.83026" fill="#f00"/>
 <path transform="scale(-1.024 -.9766)" d="m-116.44-181.25h2.9326v10.268c-1e-5 1.4168-0.38594 2.4755-1.1578 3.1763s-1.9296 1.0512-3.4886 1.0512h-0.59413v-2.2166h0.45703c0.60936 0 1.0689-0.17011 1.3787-0.51034s0.47226-0.84041 0.47226-1.5006v-10.268m1.4625 17.519c-0.89374 1e-5 -1.5869 0.33008-2.0794 0.99021s-0.73886 1.5894-0.73886 2.7878c0 1.1933 0.24628 2.1201 0.73886 2.7802s1.1857 0.99022 2.0794 0.99022c0.8988 0 1.5945-0.33007 2.0871-0.99022s0.73884-1.5869 0.73885-2.7802c-1e-5 -1.1984-0.24629-2.1277-0.73885-2.7878s-1.1883-0.9902-2.0871-0.99021m0-2.1252c1.8281 2e-5 3.2601 0.52305 4.296 1.5691s1.5539 2.4908 1.5539 4.3341-0.51797 3.2804-1.5539 4.3265-2.4679 1.5691-4.296 1.5691c-1.823 0-3.255-0.52304-4.296-1.5691s-1.5539-2.4882-1.5539-4.3265 0.51796-3.288 1.5539-4.3341 2.473-1.5691 4.296-1.5691m-4.6159 15.805h2.9326v4.1513l4.2275-4.1513h3.4048l-5.4766 5.3852 6.0403 5.987h-3.6714l-4.5245-4.4788v4.4788h-2.9326v-11.372m0.716 15.6h7.9141v2.2166h-4.9815v2.1175h4.6845v2.2166h-4.6845v2.605h5.1491v2.2166h-8.0817v-11.372m3.4962 20.642c0.61443 1e-5 1.0537-0.11425 1.3177-0.34276 0.26913-0.22851 0.4037-0.60428 0.40371-1.1273s-0.13458-0.88864-0.40371-1.1121c-0.26406-0.22343-0.70331-0.33514-1.3177-0.33515h-1.234v2.9173h1.234m-1.234 2.0261v4.3036h-2.9326v-11.372h4.4788c1.498 1e-5 2.5949 0.25138 3.2906 0.75409s1.0511 1.2974 1.0512 2.3841c-1e-5 0.75156-0.18282 1.3685-0.54843 1.8509-0.36055 0.48242-0.90644 0.83788-1.6377 1.0664 0.40115 0.09141 0.75915 0.29961 1.074 0.6246 0.31991 0.31992 0.64236 0.80741 0.96736 1.4625l1.592 3.2296h-3.123l-1.3863-2.8259c-0.2793-0.56873-0.56367-0.9572-0.85311-1.1654-0.28438-0.20819-0.66523-0.31229-1.1426-0.31229h-0.83025" fill="#f00"/>
 <path d="m63.014 44.635c-4.8797 0.49055-6.6823 5.8966-10.405 7.625 0.14541 2.6768-5.3105 4.2679-6.4368 7.375-6.5418 0.2869-3.3881 10.52 2.031 7 1.5715-5.0984 7.8153-5.6497 5.1557 1.1875-2.8247 10.384-4.4186 22.924 2.9518 32.217-3.3378-0.17826-19.614-1.0783-11.508 2.609 4.4185 2.6896 18.366 1.5195 8.8586 6.6534-3.8154 2.6562-14.353 12.337-4.5834 8.302-0.4316 5.6983-0.06837 12.339-0.18748 18.375 10.824 4.813 22.567 4.344 33.934 3.4375 2.8266-2.1776 12.29-0.74788 10.686-6.8438-0.28371-6.3833 0.9788-14.452-1.5936-19.75 11.307 1.505 0.64616-3.5834-4.4711-6.1078-7.6642-2.6665 5.3946-6.7552 7.2492-11.006 5.3431-5.6435-12.64 4.0214-9.5788-0.68742 4.5873-8.5686 0.26003-17.958 0.68924-26.886 0.3634-2.5351-3.9106-14.125 2.211-9.3914-1.3802 6.5783 9.7942 4.3385 6.2752-1.1086-5.5776 0.09758-8.0172-9.722-14.623-8.7188-4.8253 2.8707-5.7215 7.2258-7.9054-0.3125-2.0751-2.6443-5.306-4.5226-8.7491-3.9688zm-0.09374 8.9062c5.895 7.6173-8.658-2.2131 0 0z"/>
 <path d="m63.614 106.93c-7.0483 0-12.723 5.6758-12.723 12.725v14.929c9.3789 4.6491 29.523 4.8938 40.615 0v-14.929c0-7.049-5.6752-12.725-12.723-12.725h-15.168z" fill="url(#f)"/>
 <path d="m66.863 106.89-6.383 9.8227 4.5793 7.5466-5.7849 9.0659 2.2759 4.1959c2.5456 0.39867 4.9588 0.57637 7.3718 0.5331l2.8103-4.1931-5.3514-9.6474 4.8155-8.4388-4.3336-8.8849z" fill="url(#g)" fill-rule="evenodd"/>
 <path d="m66.863 106.89-3.2455 10.265 1.8396 7.193-3.929 9.0659 1.7014 4.2843c1.5735 0.22189 2.9702 0.26701 3.7925 0.26793l1.7056-4.0164-2.9209-9.6474 1.9874-7.5107-0.93101-9.9014z" fill="url(#h)" fill-rule="evenodd"/>
 <path d="m59.747 101.79-12.958-0.2618 13.351 4.058-11.911 10.21 18.848-8.7705 14.267 14.268s-8.1151-13.221-7.3298-12.436 18.063 1.9635 18.063 1.9635l-10.471-5.4979s10.471-9.2941 9.9476-8.7705-18.979 5.8906-18.979 5.8906l-12.827-0.65452z" fill="url(#i)" fill-rule="evenodd"/>
 <path d="m85.984 84.457c0 11.413-7.5631 20.676-16.882 20.676s-16.882-9.263-16.882-20.676 7.5631-20.676 16.882-20.676 16.882 9.263 16.882 20.676z" fill="url(#j)"/>
 <path transform="matrix(.14484 0 0 .0979 17.434 60.586)" d="m353 245.86c0 11.868-9.408 21.5-21 21.5s-21-9.632-21-21.5 9.408-21.5 21-21.5 21 9.632 21 21.5z" fill="#fff"/>
 <path transform="matrix(.08277 0 0 .08197 36.74 64.553)" d="m353 245.86c0 11.868-9.408 21.5-21 21.5s-21-9.632-21-21.5 9.408-21.5 21-21.5 21 9.632 21 21.5z" fill="#03cd03"/>
 <path transform="matrix(.05173 0 0 .06603 46.392 68.618)" d="m353 245.86c0 11.868-9.408 21.5-21 21.5s-21-9.632-21-21.5 9.408-21.5 21-21.5 21 9.632 21 21.5z"/>
 <path transform="matrix(.14484 0 0 .0979 7.347 60.245)" d="m353 245.86c0 11.868-9.408 21.5-21 21.5s-21-9.632-21-21.5 9.408-21.5 21-21.5 21 9.632 21 21.5z" fill="#fff"/>
 <path transform="matrix(.08277 0 0 .08197 26.652 64.212)" d="m353 245.86c0 11.868-9.408 21.5-21 21.5s-21-9.632-21-21.5 9.408-21.5 21-21.5 21 9.632 21 21.5z" fill="#03cd03"/>
 <path transform="matrix(.05173 0 0 .06603 36.305 68.278)" d="m353 245.86c0 11.868-9.408 21.5-21 21.5s-21-9.632-21-21.5 9.408-21.5 21-21.5 21 9.632 21 21.5z"/>
 <path d="m57.35 95.301c1.2449 6.0785 7.403 4.346 11.828-0.60919-4.8566 0.10971-8.1738 0.44449-11.828 0.60919z" fill="#d6201a" fill-rule="evenodd"/>
 <path d="m77.844 122.94 1.2635 0.12326 1.3712 14.513-3.4648 0.2504 0.83015-14.886z" fill="#015a00"/>
 <path d="m59.671 86.303c-0.79182 1.2868-4.3304 2.184-4.1662 3.1565s3.5811 1.727 4.371 2.2876l0.33082-0.47789c-0.69462-0.49301-3.5086-0.97257-3.6436-1.7721s3.1683-1.8488 3.9088-3.0523l-0.80079-0.14178z" fill-rule="evenodd"/>
 <path d="m63.545 46.573c-2.8842 0.31171-5.661 2.6126-7.2492 6.8125 11.988-8.3999 9.749 8.6875 9.749 8.6875-0.15133-0.07238-0.49591-0.064-0.53119-0.1875-0.37889-1.3262-11.503-15.783-18.936 1.3125 10.03-7.6318 10.055-0.33387 8.7491 5.0625-0.56373 3.2522-1.5936 7.25-1.5936 7.25 10.416-2.211 20.413-1.0487 30.747 0.78125 0 0 0.04568-4.136-0.13426-5.2859 0.75778-6.4418-7.1828-18.672 6.4513-12.388-14.66-19.988-16.752 4.213-16.941 3.4551-0.00217-0.00869-0.05834 0.00801-0.06249 0-0.44301-11.042-5.4869-16.015-10.249-15.5z" fill="url(#l)" fill-rule="evenodd"/>
 <path d="m57.587 54.29c0 0.97094-0.82008 1.7589-1.8306 1.7589s-1.8306-0.78801-1.8306-1.7589 0.82009-1.7589 1.8306-1.7589 1.8306 0.78801 1.8306 1.7589z" fill="url(#m)"/>
 <path d="m58.426 95.676c1.2449 4.7078 5.5756 2.2139 9.1378-0.45689-4.8566 0.10971-5.4835 0.29219-9.1378 0.45689z" fill="#fff" fill-rule="evenodd"/>
 <path d="m47.968 63.551c0 0.97094-0.82008 1.7589-1.8306 1.7589s-1.8306-0.78801-1.8306-1.7589 0.82009-1.7589 1.8306-1.7589 1.8306 0.78801 1.8306 1.7589z" fill="url(#n)"/>
 <path d="m92.978 59.674c0 0.97094-0.82008 1.7589-1.8306 1.7589s-1.8306-0.78801-1.8306-1.7589 0.82009-1.7589 1.8306-1.7589 1.8306 0.78801 1.8306 1.7589z" fill="url(#o)"/>
 <path d="m80.7 88.798c5.8152 1.2586 5.2262-8.8668-0.25215-5.2073l0.46143 0.07934c3.8426-2.1864 4.8405 5.2922-1.0574 5.223l0.84815-0.09505z" fill-rule="evenodd"/>
 <path d="m81.141 87.756c3.318 0.71815 2.982-5.0592-0.14387-2.9712l0.16856-0.0021c2.1925-1.2475 2.8566 3.067-0.50862 3.0275l0.48393-0.05423z" fill-rule="evenodd"/>
 <path d="m53.639 76.007 0.64607-2.5128c10.361-1.0769 21.153-0.93332 30.007 0.86152 0.28715 0.64614 0.28714 2.082 0.28714 2.082-10.17-1.6512-20.411-1.723-30.94-0.43076z" fill="url(#p)" fill-rule="evenodd"/>
 <path d="m63.541 46.578c-2.7452 0.29669-5.3496 2.4583-6.968 6.2812-0.26169-0.13866-0.49264-0.3125-0.81241-0.3125-1.0104 0-1.8436 0.77906-1.8436 1.75 0 0.36519 0.20768 0.65626 0.40621 0.9375-2.4467 0.44755-4.9498 2.3895-7.1867 6.9688-0.29843-0.20295-0.60674-0.40625-0.9999-0.40625-1.0104 0-1.8436 0.77906-1.8436 1.75s0.8331 1.7812 1.8436 1.7812 1.8123-0.81031 1.8123-1.7812c0-0.38811-0.21561-0.67775-0.43745-0.96875 9.0001-6.3596 9.0712 0.48259 7.8117 5.6875-0.56373 3.2522-1.5936 7.25-1.5936 7.25h0.03125l-0.12499 0.5h0.09374c-0.95063 2.5862-1.4998 5.4189-1.4998 8.4375 0 7.2839 3.098 13.66 7.7492 17.344h-0.24997l-12.936-0.25 13.342 4.0312-11.905 10.219 4.2496-1.9688c-0.92854 1.7685-1.5936 3.7003-1.5936 5.8438v14.906c2.7411 1.3587 6.5072 2.2245 10.593 2.8125l0.06249 0.125c0.57184 0.08955 1.0961 0.05775 1.6561 0.125l0.03125 0.0625c1.5735 0.22189 2.9586 0.24908 3.7808 0.25l0.03125-0.03125c0.61544 0.01755 1.2615 0.136 1.8748 0.125 2.7323 0.07516 5.3736-0.13509 8.0929-0.375v0.15625l3.4684-0.25-0.03125-0.1875c4.0874-0.58077 7.9574-1.443 11.061-2.8125v-14.906c0-3.6308-1.545-6.8733-3.9683-9.1875l4.5308 0.34375-10.468-5.5s10.46-9.3049 9.9365-8.7812c-0.31901 0.31904-6.315 2.1444-11.718 3.75 3.7301-3.7936 6.1556-9.4459 6.1556-15.844 0-2.9928-0.53324-5.8062-1.4686-8.375-0.00165-0.07908-0.02471-0.2429-0.03125-0.375 0.00607-0.7452 0.03473-3.6668-0.12499-4.6875 0.74128-6.3015-6.7139-18.057 5.7182-12.688-0.43711 0.32154-0.74992 0.77432-0.74992 1.3438 0 0.97094 0.80186 1.7812 1.8123 1.7812s1.8436-0.81031 1.8436-1.7812-0.83309-1.75-1.8436-1.75c-0.28352 0-0.47904 0.17054-0.71868 0.28125-14.292-18.992-16.373 4.6258-16.561 3.875-0.00217-0.00869-0.05834 0.00801-0.06249 0-0.44301-11.042-5.4869-16.015-10.249-15.5zm-0.65618 4.625c4.4278 1.2621 3.1559 10.875 3.1559 10.875-0.15133-0.07238-0.49591-0.064-0.5312-0.1875-0.21389-0.74869-3.8776-5.5458-8.3429-6.625 0.20887-0.28577 0.40621-0.59328 0.40621-0.96875 0-0.51003-0.23238-0.95988-0.59369-1.2812 2.5858-1.6573 4.5618-2.1956 5.9056-1.8125z" fill="url(#e)"/>
</svg>
