<?xml version="1.0" encoding="UTF-8"?>
<svg viewBox="0 0 140 190" xmlns="http://www.w3.org/2000/svg">
 <defs>
  <linearGradient id="a" x1="2" x2="109" y1="62.1" y2="127.7" gradientUnits="userSpaceOnUse">
   <stop stop-color="#ebf0d0" offset="0"/>
   <stop stop-color="#ffffeb" offset="1"/>
  </linearGradient>
 </defs>
 <path d="m21 5h103c8.864 0 16 7.136 16 16v153c0 8.864-7.136 16-16 16h-103c-8.864 0-16-7.136-16-16v-153c0-8.864 7.136-16 16-16z" fill-opacity=".49804"/>
 <path d="m17 1h103c8.864 0 16 7.136 16 16v153c0 8.864-7.136 16-16 16h-103c-8.864 0-16-7.136-16-16v-153c0-8.864 7.136-16 16-16z" fill="#fff"/>
 <path d="m19 3h103c8.864 0 16 7.136 16 16v153c0 8.864-7.136 16-16 16h-103c-8.864 0-16-7.136-16-16v-153c0-8.864 7.136-16 16-16z" fill="#c7891f"/>
 <path d="m18 2h103c8.864 0 16 7.136 16 16v153c0 8.864-7.136 16-16 16h-103c-8.864 0-16-7.136-16-16v-153c0-8.864 7.136-16 16-16z" fill="url(#a)"/>
 <path d="m103.53125,21c-.49728.00194-.9726.09931-1.4375.28125-.9298.36388-1.73845,1.1114-2.03125,2.1875-.17557.64526-.12276,1.38092.1875,2s.93159,1.11934 1.75,1.125c.47552.00329.84996-.1962 1.15625-.53125 .15315-.16753.31341-.41588.3125-.71875s-.20998-.58273-.46875-.75l-.53125.8125c.07009.04531.00017-.00496 0-.0625s.01723-.02179-.03125.03125c-.09695.10606-.45498.21863-.4375.21875-.42286-.00293-.65496-.21705-.84375-.59375s-.22731-.90525-.125-1.28125c.20426-.7507.71786-1.23059 1.40625-1.5s1.55215-.2977 2.25-.03125c2.11599.8079 2.82469,3.42928 1.9375,5.4375-.77925,1.76385-2.58067,2.82959-4.5,2.90625l-62.78125.375v1l62.5625-.375v.0625c.07809.00035.14087-.05998.21875-.0625h.34375v-.09375c2.16345-.19422 4.19059-1.36191 5.09375-3.40625 1.10087-2.49188.1434-5.74812-2.5625-6.78125-.4725-.1804-.97148-.25194-1.46875-.25zm11.40625,3.03125c-.67184.02277-1.34578.16228-1.96875.4375-2.04434.90316-3.21203,2.9303-3.40625,5.09375h-.09375v.34375c-.00252.07788-.06285.14066-.0625.21875h.0625l.25,69.09375h1l-.25-69.3125c.07667-1.91933 1.1424-3.72075 2.90625-4.5 2.00822-.88719 4.6296-.17849 5.4375,1.9375 .26645.69785.23816,1.56161-.03125,2.25s-.7493,1.20199-1.5,1.40625c-.376.10231-.90455.06379-1.28125-.125s-.59082-.42089-.59375-.84375c.00012.01748.11269-.34055.21875-.4375 .05304-.04848.08879-.03107.03125-.03125s-.10781-.07009-.0625,0l.8125-.53125c-.16727-.25877-.44713-.46784-.75-.46875s-.55122.15935-.71875.3125c-.33505.30629-.53454.68073-.53125,1.15625 .00566.81841.50592,1.43974 1.125,1.75s1.35474.36307 2,.1875c1.0761-.2928 1.82362-1.10145 2.1875-2.03125 .18194-.4649.27931-.94022.28125-1.4375s-.0696-.99625-.25-1.46875c-.77485-2.02942-2.79699-3.0683-4.8125-3zm-85.65625,65.96875 .25,69.3125c-.07667,1.91933-1.1424,3.72074-2.90625,4.5-2.00822.88719-4.6296.17848-5.4375-1.9375-.26645-.69785-.23816-1.56162.03125-2.25s.7493-1.202 1.5-1.40625c.376-.10231.90455-.0638 1.28125.125s.59082.42088.59375.84375c-.00012-.01748-.11269.34054-.21875.4375-.05304.04848-.08879.03106-.03125.03125s.10781.07008.0625,0l-.8125.53125c.16727.25877.44713.46783.75.46875s.55122-.15936.71875-.3125c.33505-.30629.53454-.68074.53125-1.15625-.00566-.81841-.50592-1.43975-1.125-1.75s-1.35474-.36308-2-.1875c-1.0761.2928-1.82362,1.10144-2.1875,2.03125-.18194.4649-.27931.94021-.28125,1.4375s.0696.99624.25,1.46875c1.03313,2.7059 4.28937,3.66336 6.78125,2.5625 2.04434-.90316 3.21203-2.93031 3.40625-5.09375h.09375v-.34375c.00252-.07788.06285-.14067.0625-.21875h-.0625l-.25-69.09375h-1zm71.375,67.3125-62.5625.375v-.0625c-.07809-.00035-.14087.05998-.21875.0625h-.34375v.09375c-2.16345.19422-4.19059,1.36191-5.09375,3.40625-1.10087,2.49189-.1434,5.74812 2.5625,6.78125 .4725.1804.97148.25194 1.46875.25s.9726-.09931 1.4375-.28125c.9298-.36388 1.73845-1.1114 2.03125-2.1875 .17556-.64526.12276-1.38092-.1875-2s-.93159-1.11934-1.75-1.125c-.47552-.00329-.84996.1962-1.15625.53125-.15315.16753-.31341.41588-.3125.71875s.20998.58273.46875.75l.53125-.8125c-.07009-.04531-.00017.00496 0,.0625s-.01723.02179.03125-.03125c.09695-.10606.45498-.21863.4375-.21875 .42286.00293.65496.21705.84375.59375s.22731.90525.125,1.28125c-.20426.7507-.71786,1.2306-1.40625,1.5s-1.55215.2977-2.25.03125c-2.11599-.8079-2.82469-3.42928-1.9375-5.4375 .77925-1.76385 2.58067-2.82958 4.5-2.90625l62.78125-.375v-1z" fill="#9f0000" fill-rule="evenodd"/>
 <path transform="matrix(.90928 0 0 1.0998 329.5 183.5)" d="m-348.78-155.73h17.485v5.1706h-11.876v4.2205c0.53593-0.14614 1.0719-0.25577 1.6078-0.32887 0.54811-0.08525 1.1145-0.12788 1.6992-0.1279 3.3253 2e-5 5.9136 0.83439 7.7651 2.5031 1.8514 1.6566 2.7771 3.9708 2.7772 6.9429-2e-5 2.9477-1.011 5.2559-3.0329 6.9246-2.0098 1.6687-4.8052 2.5031-8.3863 2.5031-1.5469 0-3.0817-0.15225-4.6042-0.45676-1.5104-0.29234-3.0147-0.74301-4.5129-1.352v-5.536c1.486 0.85264 2.8929 1.4921 4.2205 1.9184 1.3398 0.42632 2.6005 0.63948 3.782 0.63947 1.7053 1e-5 3.0451-0.41413 4.0196-1.2424 0.9866-0.84044 1.4799-1.9732 1.4799-3.3984-2e-5 -1.4373-0.49333-2.5701-1.4799-3.3984-0.97445-0.82826-2.3143-1.2424-4.0196-1.2424-1.011 1e-5 -2.089 0.13399-3.2339 0.40195-1.145 0.2558-2.3752 0.65776-3.6907 1.2059v-15.347" fill="#f00"/>
 <path transform="matrix(-.90928 0 0 -1.0998 329.5 183.5)" d="m223.45 5.9103h17.485v5.1706h-11.876v4.2205c0.53593-0.14615 1.0719-0.25577 1.6078-0.32887 0.54811-0.08525 1.1145-0.12788 1.6992-0.1279 3.3252 2e-5 5.9136 0.83438 7.7651 2.5031 1.8514 1.6566 2.7771 3.9708 2.7772 6.9429-3e-5 2.9477-1.011 5.2559-3.0329 6.9246-2.0098 1.6687-4.8052 2.5031-8.3863 2.5031-1.5469 0-3.0817-0.15226-4.6042-0.45677-1.5104-0.29233-3.0147-0.74301-4.5129-1.352v-5.536c1.486 0.85264 2.8929 1.4921 4.2205 1.9184 1.3398 0.42632 2.6005 0.63948 3.782 0.63948 1.7052 0 3.0451-0.41413 4.0196-1.2424 0.9866-0.84045 1.4799-1.9732 1.4799-3.3984-2e-5 -1.4373-0.49333-2.5701-1.4799-3.3984-0.97445-0.82826-2.3143-1.2424-4.0196-1.2424-1.011 1e-5 -2.089 0.134-3.2339 0.40196-1.145 0.2558-2.3752 0.65776-3.6907 1.2059v-15.347" fill="#f00"/>
 <path d="m20.41 48.665c-4.1258 8.2455-7.1342 12.498-13.34 17.04 5.8724 4.487 10.013 9.1245 13.46 16.62 3.0792-7.1212 6.8464-12.43 13.39-16.843-6.582-3.3489-10.393-8.6536-13.51-16.817z" fill="#f00" fill-rule="evenodd"/>
 <path d="m51.13 45c-2.4033 4.8454-4.1557 7.3444-7.7702 10.013 3.4206 2.6368 5.8324 5.3619 7.8405 9.7668 1.7936-4.1847 3.988-7.3044 7.7995-9.8977-3.834-1.968-6.0537-5.0852-7.8698-9.8823z" fill="#f00" fill-rule="evenodd"/>
 <path d="m87.13 45c-2.4033 4.8454-4.1557 7.3444-7.7702 10.013 3.4206 2.6368 5.8324 5.3619 7.8405 9.7668 1.7936-4.1847 3.988-7.3044 7.7995-9.8977-3.834-1.968-6.0536-5.0852-7.8698-9.8823z" fill="#f00" fill-rule="evenodd"/>
 <path d="m53.13 122.22c-2.4033 4.8454-4.1557 7.3444-7.7702 10.013 3.4206 2.6368 5.8324 5.3619 7.8405 9.7668 1.7936-4.1847 3.988-7.3044 7.7995-9.8977-3.834-1.968-6.0537-5.0852-7.8698-9.8823z" fill="#f00" fill-rule="evenodd"/>
 <path d="m88.13 122c-2.4033 4.8454-4.1557 7.3444-7.7702 10.013 3.4206 2.6368 5.8324 5.3619 7.8405 9.7668 1.7936-4.1847 3.988-7.3044 7.7995-9.8977-3.834-1.968-6.0536-5.0852-7.8698-9.8823z" fill="#f00" fill-rule="evenodd"/>
 <path d="m118.34 106.34c-4.1258 8.2455-7.1342 12.498-13.34 17.04 5.8724 4.487 10.013 9.1245 13.46 16.62 3.0792-7.1212 6.8464-12.43 13.39-16.843-6.582-3.3489-10.393-8.6536-13.51-16.817z" fill="#f00" fill-rule="evenodd"/>
 <path d="m69.77 82.22c-2.4033 4.8454-4.1557 7.3444-7.7702 10.013 3.4206 2.6368 5.8324 5.3619 7.8405 9.7668 1.7936-4.1847 3.988-7.3044 7.7995-9.8977-3.834-1.968-6.0537-5.0852-7.8698-9.8823z" fill="#f00" fill-rule="evenodd"/>
</svg>
