<?xml version="1.0" encoding="UTF-8"?>
<svg viewBox="0 0 140 190" xmlns="http://www.w3.org/2000/svg" xmlns:xlink="http://www.w3.org/1999/xlink">
 <defs>
  <linearGradient id="p" x1="2" x2="109" y1="62.1" y2="127.7" gradientUnits="userSpaceOnUse">
   <stop stop-color="#ebf0d0" offset="0"/>
   <stop stop-color="#ffffeb" offset="1"/>
  </linearGradient>
  <linearGradient id="a">
   <stop stop-color="#f0eb00" offset="0"/>
   <stop stop-color="#ff0" offset="1"/>
  </linearGradient>
  <linearGradient id="b">
   <stop stop-color="#0083cc" offset="0"/>
   <stop stop-color="#24a4cc" offset="1"/>
  </linearGradient>
  <linearGradient id="c">
   <stop stop-color="#008200" offset="0"/>
   <stop stop-color="#00d000" offset="1"/>
  </linearGradient>
  <linearGradient id="k" x1="356.44" x2="484.8" y1="437.5" y2="256.18" gradientTransform="matrix(.18682 0 0 .14486 144.51 214.08)" gradientUnits="userSpaceOnUse">
   <stop stop-color="#ffd8c1" offset="0"/>
   <stop stop-color="#ffeded" offset="1"/>
  </linearGradient>
  <linearGradient id="j" x1="210.49" x2="213.63" y1="276.15" y2="272.45" gradientUnits="userSpaceOnUse">
   <stop stop-color="#c10000" offset="0"/>
   <stop stop-color="#ff433e" offset="1"/>
  </linearGradient>
  <linearGradient id="d" x1="258.09" x2="223.21" y1="211.71" y2="251.64" gradientUnits="userSpaceOnUse">
   <stop stop-color="#fff" offset="0"/>
   <stop stop-color="#fff" stop-opacity="0" offset="1"/>
  </linearGradient>
  <linearGradient id="o" x1="210.76" x2="232.53" y1="305.68" y2="287.57" gradientUnits="userSpaceOnUse" xlink:href="#c"/>
  <linearGradient id="n" x1="212.31" x2="217.7" y1="299.14" y2="297.5" gradientUnits="userSpaceOnUse" xlink:href="#b"/>
  <linearGradient id="m" x1="213.59" x2="216.38" y1="298.92" y2="298.52" gradientUnits="userSpaceOnUse" xlink:href="#a"/>
  <linearGradient id="l" x1="196.83" x2="238.93" gradientUnits="userSpaceOnUse" xlink:href="#b"/>
  <linearGradient id="i" x1="207.68" x2="227.9" y1="246.42" y2="238.42" gradientUnits="userSpaceOnUse" xlink:href="#c"/>
  <linearGradient id="h" x1="204.17" x2="206.26" y1="232.12" y2="230.54" gradientUnits="userSpaceOnUse" xlink:href="#a"/>
  <linearGradient id="g" x1="194.55" x2="196.64" y1="241.38" y2="239.8" gradientUnits="userSpaceOnUse" xlink:href="#a"/>
  <linearGradient id="f" x1="239.57" x2="241.65" y1="237.5" y2="235.92" gradientUnits="userSpaceOnUse" xlink:href="#a"/>
  <linearGradient id="e" x1="210.71" x2="224.93" y1="252.51" y2="250.21" gradientUnits="userSpaceOnUse" xlink:href="#a"/>
 </defs>
 <path d="m21 5h103c8.864 0 16 7.136 16 16v153c0 8.864-7.136 16-16 16h-103c-8.864 0-16-7.136-16-16v-153c0-8.864 7.136-16 16-16z" fill-opacity=".49804"/>
 <path d="m17 1h103c8.864 0 16 7.136 16 16v153c0 8.864-7.136 16-16 16h-103c-8.864 0-16-7.136-16-16v-153c0-8.864 7.136-16 16-16z" fill="#fff"/>
 <path d="m19 3h103c8.864 0 16 7.136 16 16v153c0 8.864-7.136 16-16 16h-103c-8.864 0-16-7.136-16-16v-153c0-8.864 7.136-16 16-16z" fill="#c7891f"/>
 <path d="m18 2h103c8.864 0 16 7.136 16 16v153c0 8.864-7.136 16-16 16h-103c-8.864 0-16-7.136-16-16v-153c0-8.864 7.136-16 16-16z" fill="url(#p)"/>
 <path transform="scale(1.024 .9766)" d="m19.173 12.281h2.9326v10.268c0 1.4168-0.38593 2.4755-1.1578 3.1763s-1.9296 1.0512-3.4886 1.0512h-0.59413v-2.2166h0.45702c0.60936 0 1.0689-0.17012 1.3787-0.51034s0.47226-0.84041 0.47226-1.5006v-10.268m1.4625 17.519c-0.89374 1e-5 -1.5869 0.33008-2.0794 0.99021s-0.73886 1.5894-0.73885 2.7878c0 1.1933 0.24628 2.1201 0.73885 2.7802s1.1857 0.99022 2.0794 0.99021c0.8988 0 1.5945-0.33007 2.0871-0.99021s0.73884-1.5869 0.73885-2.7802c-1e-5 -1.1984-0.24629-2.1277-0.73885-2.7878s-1.1883-0.99021-2.0871-0.99021m0-2.1252c1.8281 1e-5 3.2601 0.52305 4.296 1.5691s1.5539 2.4908 1.5539 4.3341-0.51797 3.2804-1.5539 4.3265-2.4679 1.5691-4.296 1.5691c-1.823 0-3.255-0.52304-4.296-1.5691s-1.5539-2.4882-1.5539-4.3265 0.51796-3.288 1.5539-4.3341 2.473-1.5691 4.296-1.5691m-4.6159 15.805h2.9326v4.1513l4.2275-4.1513h3.4048l-5.4766 5.3852 6.0403 5.987h-3.6714l-4.5245-4.4788v4.4788h-2.9326v-11.372m0.716 15.6h7.9141v2.2166h-4.9815v2.1175h4.6845v2.2166h-4.6845v2.605h5.1491v2.2166h-8.0817v-11.372m3.4962 20.642c0.61444 1e-5 1.0537-0.11425 1.3178-0.34277 0.26913-0.2285 0.4037-0.60428 0.4037-1.1273s-0.13457-0.88865-0.4037-1.1121c-0.26406-0.22342-0.70331-0.33514-1.3178-0.33515h-1.234v2.9173h1.234m-1.234 2.0261v4.3036h-2.9326v-11.372h4.4788c1.498 1e-5 2.5949 0.25137 3.2906 0.75409s1.0511 1.2974 1.0512 2.3841c-1e-5 0.75156-0.18282 1.3685-0.54843 1.8509-0.36055 0.48242-0.90644 0.83788-1.6377 1.0664 0.40116 0.09141 0.75916 0.29961 1.074 0.6246 0.31991 0.31992 0.64236 0.80741 0.96736 1.4625l1.592 3.2296h-3.123l-1.3863-2.8259c-0.2793-0.56874-0.56367-0.95721-0.85311-1.1654-0.28438-0.20819-0.66523-0.31229-1.1426-0.3123h-0.83026" fill="#f00"/>
 <path transform="scale(-1.024 -.9766)" d="m-116.44-181.25h2.9326v10.268c-1e-5 1.4168-0.38594 2.4755-1.1578 3.1763s-1.9296 1.0512-3.4886 1.0512h-0.59413v-2.2166h0.45703c0.60936 0 1.0689-0.17011 1.3787-0.51034s0.47226-0.84041 0.47226-1.5006v-10.268m1.4625 17.519c-0.89374 1e-5 -1.5869 0.33008-2.0794 0.99021s-0.73886 1.5894-0.73886 2.7878c0 1.1933 0.24628 2.1201 0.73886 2.7802s1.1857 0.99022 2.0794 0.99022c0.8988 0 1.5945-0.33007 2.0871-0.99022s0.73884-1.5869 0.73885-2.7802c-1e-5 -1.1984-0.24629-2.1277-0.73885-2.7878s-1.1883-0.9902-2.0871-0.99021m0-2.1252c1.8281 2e-5 3.2601 0.52305 4.296 1.5691s1.5539 2.4908 1.5539 4.3341-0.51797 3.2804-1.5539 4.3265-2.4679 1.5691-4.296 1.5691c-1.823 0-3.255-0.52304-4.296-1.5691s-1.5539-2.4882-1.5539-4.3265 0.51796-3.288 1.5539-4.3341 2.473-1.5691 4.296-1.5691m-4.6159 15.805h2.9326v4.1513l4.2275-4.1513h3.4048l-5.4766 5.3852 6.0403 5.987h-3.6714l-4.5245-4.4788v4.4788h-2.9326v-11.372m0.716 15.6h7.9141v2.2166h-4.9815v2.1175h4.6845v2.2166h-4.6845v2.605h5.1491v2.2166h-8.0817v-11.372m3.4962 20.642c0.61443 1e-5 1.0537-0.11425 1.3177-0.34276 0.26913-0.22851 0.4037-0.60428 0.40371-1.1273s-0.13458-0.88864-0.40371-1.1121c-0.26406-0.22343-0.70331-0.33514-1.3177-0.33515h-1.234v2.9173h1.234m-1.234 2.0261v4.3036h-2.9326v-11.372h4.4788c1.498 1e-5 2.5949 0.25138 3.2906 0.75409s1.0511 1.2974 1.0512 2.3841c-1e-5 0.75156-0.18282 1.3685-0.54843 1.8509-0.36055 0.48242-0.90644 0.83788-1.6377 1.0664 0.40115 0.09141 0.75915 0.29961 1.074 0.6246 0.31991 0.31992 0.64236 0.80741 0.96736 1.4625l1.592 3.2296h-3.123l-1.3863-2.8259c-0.2793-0.56873-0.56367-0.9572-0.85311-1.1654-0.28438-0.20819-0.66523-0.31229-1.1426-0.31229h-0.83025" fill="#f00"/>
 <g transform="matrix(.99989 0 0 1 -149.08 -176.97)">
  <path d="m212.11 221.6c-4.8802 0.49055-6.683 5.8966-10.406 7.625 0.14543 2.6768-5.3111 4.2679-6.4375 7.375-6.5425 0.2869-3.3884 10.52 2.0312 7 1.5716-5.0984 7.8162-5.6497 5.1562 1.1875-2.825 10.384-4.419 22.924 2.9521 32.217-3.3381-0.17826-19.616-1.0783-11.509 2.609 4.419 2.6896 18.368 1.5195 8.8596 6.6534-3.8158 2.6562-14.354 12.337-4.5839 8.302-0.43164 5.6983-0.06838 12.339-0.1875 18.375 10.825 4.813 22.569 4.344 33.938 3.4375 2.8269-2.1776 12.291-0.74788 10.688-6.8438-0.28374-6.3833 0.9789-14.452-1.5938-19.75 11.308 1.505 0.64623-3.5834-4.4716-6.1078-7.665-2.6665 5.3952-6.7552 7.2499-11.006 5.3436-5.6435-12.641 4.0214-9.5798-0.68742 4.5878-8.5686 0.26006-17.958 0.68931-26.886 0.36344-2.5351-3.911-14.125 2.2112-9.3914-1.3803 6.5783 9.7953 4.3385 6.2758-1.1086-5.5782 0.09758-8.018-9.722-14.625-8.7188-4.8258 2.8707-5.7221 7.2258-7.9062-0.3125-2.0753-2.6443-5.3066-4.5226-8.75-3.9688zm-0.09375 8.9062c5.8956 7.6173-8.6589-2.2131 0 0z"/>
  <path d="m212.71 283.9c-7.0491 0-12.725 5.6758-12.725 12.725v14.929c9.3799 4.6491 29.526 4.8938 40.619 0v-14.929c0-7.049-5.6758-12.725-12.725-12.725h-15.169z" fill="url(#o)"/>
  <path d="m215.96 283.85-6.3837 9.8227 4.5798 7.5466-5.7855 9.0659 2.2761 4.1959c2.5459 0.39867 4.9593 0.57637 7.3726 0.5331l2.8106-4.1931-5.3519-9.6474 4.816-8.4388-4.3341-8.8849z" fill="url(#n)" fill-rule="evenodd"/>
  <path d="m215.96 283.85-3.2459 10.265 1.8397 7.193-3.9294 9.0659 1.7016 4.2843c1.5736 0.22189 2.9705 0.26701 3.7929 0.26793l1.7058-4.0164-2.9212-9.6474 1.9876-7.5107-0.93111-9.9014z" fill="url(#m)" fill-rule="evenodd"/>
  <path d="m208.85 278.76-12.959-0.2618 13.352 4.058-11.912 10.21 18.85-8.7705 14.268 14.268s-8.116-13.221-7.3306-12.436 18.065 1.9635 18.065 1.9635l-10.472-5.4979s10.472-9.2941 9.9486-8.7705-18.981 5.8906-18.981 5.8906l-12.828-0.65452z" fill="url(#l)" fill-rule="evenodd"/>
  <path d="m235.09 261.42c0 11.413-7.5639 20.676-16.884 20.676s-16.884-9.263-16.884-20.676 7.5639-20.676 16.884-20.676 16.884 9.263 16.884 20.676z" fill="url(#k)"/>
  <path transform="matrix(.14486 0 0 .0979 166.53 237.55)" d="m353 245.86c0 11.868-9.408 21.5-21 21.5s-21-9.632-21-21.5 9.408-21.5 21-21.5 21 9.632 21 21.5z" fill="#fff"/>
  <path transform="matrix(.08278 0 0 .08197 185.84 241.52)" d="m353 245.86c0 11.868-9.408 21.5-21 21.5s-21-9.632-21-21.5 9.408-21.5 21-21.5 21 9.632 21 21.5z" fill="#04cd04"/>
  <path transform="matrix(.05173 0 0 .06603 195.49 245.59)" d="m353 245.86c0 11.868-9.408 21.5-21 21.5s-21-9.632-21-21.5 9.408-21.5 21-21.5 21 9.632 21 21.5z"/>
  <path transform="matrix(.14486 0 0 .0979 156.44 237.21)" d="m353 245.86c0 11.868-9.408 21.5-21 21.5s-21-9.632-21-21.5 9.408-21.5 21-21.5 21 9.632 21 21.5z" fill="#fff"/>
  <path transform="matrix(.08278 0 0 .08197 175.75 241.18)" d="m353 245.86c0 11.868-9.408 21.5-21 21.5s-21-9.632-21-21.5 9.408-21.5 21-21.5 21 9.632 21 21.5z" fill="#04cd04"/>
  <path transform="matrix(.05173 0 0 .06603 185.4 245.24)" d="m353 245.86c0 11.868-9.408 21.5-21 21.5s-21-9.632-21-21.5 9.408-21.5 21-21.5 21 9.632 21 21.5z"/>
  <path d="m206.45 272.27c1.245 6.0785 7.4038 4.346 11.829-0.60919-4.8571 0.10971-8.1747 0.44449-11.829 0.60919z" fill="url(#j)" fill-rule="evenodd"/>
  <path d="m226.94 299.91 1.2636 0.12326 1.3714 14.513-3.4652 0.2504 0.83024-14.886z" fill="#005a00"/>
  <path d="m208.77 263.27c-0.7919 1.2868-4.3309 2.184-4.1666 3.1565s3.5815 1.727 4.3714 2.2876l0.33085-0.47789c-0.69469-0.49301-3.509-0.97257-3.644-1.7721s3.1686-1.8488 3.9092-3.0523l-0.80087-0.14178z" fill-rule="evenodd"/>
  <path d="m212.64 223.54c-2.8845 0.31171-5.6616 2.6126-7.25 6.8125 11.99-8.3999 9.75 8.6875 9.75 8.6875-0.15135-0.07238-0.49596-0.064-0.53125-0.1875-0.37893-1.3262-11.504-15.783-18.938 1.3125 10.031-7.6318 10.056-0.33387 8.75 5.0625-0.56379 3.2522-1.5938 7.25-1.5938 7.25 10.418-2.211 20.415-1.0487 30.75 0.78125 0 0 0.04568-4.136-0.13427-5.2859 0.75786-6.4418-7.1835-18.672 6.452-12.388-14.662-19.988-16.753 4.213-16.943 3.4551-0.00217-0.00869-0.05835 8e-3 -0.0625 0-0.44306-11.042-5.4875-16.015-10.25-15.5z" fill="url(#i)" fill-rule="evenodd"/>
  <path d="m206.69 231.26c0 0.97093-0.82017 1.7589-1.8307 1.7589s-1.8307-0.78801-1.8307-1.7589 0.82018-1.759 1.8307-1.759 1.8307 0.78801 1.8307 1.759z" fill="url(#h)"/>
  <path d="m207.53 272.64c1.245 4.7078 5.5762 2.2139 9.1388-0.45689-4.8571 0.10971-5.4841 0.29219-9.1388 0.45689z" fill="#fff" fill-rule="evenodd"/>
  <path d="m197.07 240.52c0 0.97094-0.82017 1.7589-1.8307 1.7589s-1.8307-0.788-1.8307-1.7589 0.82018-1.759 1.8307-1.759 1.8307 0.78801 1.8307 1.759z" fill="url(#g)"/>
  <path d="m242.08 236.64c0 0.97094-0.82017 1.759-1.8307 1.759s-1.8307-0.78801-1.8307-1.759 0.82018-1.7589 1.8307-1.7589 1.8307 0.78801 1.8307 1.7589z" fill="url(#f)"/>
  <path d="m229.8 265.77c5.8158 1.2586 5.2268-8.8668-0.25218-5.2073l0.46148 0.07934c3.843-2.1864 4.841 5.2922-1.0575 5.223l0.84824-0.09505z" fill-rule="evenodd"/>
  <path d="m230.24 264.72c3.3184 0.71814 2.9823-5.0592-0.14389-2.9712l0.16858-0.00209c2.1927-1.2475 2.8569 3.067-0.50867 3.0275l0.48398-0.05423z" fill-rule="evenodd"/>
  <path d="m202.74 252.97 0.64614-2.5128c10.362-1.0769 21.155-0.93332 30.01 0.86152 0.28718 0.64614 0.28717 2.082 0.28717 2.082-10.171-1.6513-20.413-1.723-30.943-0.43076z" fill="url(#e)" fill-rule="evenodd"/>
  <path d="m212.65,223.54076c-2.74545.29669-5.35021,2.45828-6.96875,6.28125-.26172-.13866-.49269-.3125-.8125-.3125-1.01056,0-1.84375.77906-1.84375,1.75 0,.36519.2077.65626.40625.9375-2.447.44755-4.95035,2.38954-7.1875,6.96875-.29846-.20295-.6068-.40625-1-.40625-1.01056,0-1.84374.77906-1.84375,1.75s.83319,1.78125 1.84375,1.78125 1.8125-.81031 1.8125-1.78125c0-.38811-.21563-.67775-.4375-.96875 9.00105-6.35964 9.07217.48259 7.8125,5.6875-.56379,3.25217-1.59375,7.25-1.59375,7.25h.03125l-.125.5h.09375c-.95073,2.58618-1.5,5.41891-1.5,8.4375 0,7.2839 3.09829,13.66025 7.75,17.34375h-.25l-12.9375-.25 13.34375,4.03125-11.90625,10.21875 4.25-1.96875c-.92864,1.76854-1.59375,3.70028-1.59375,5.84375v14.90625c2.74136,1.35875 6.50793,2.22449 10.59375,2.8125l.0625.125c.5719.08955 1.09623.05775 1.65625.125l.03125.0625c1.57365.22189 2.9589.24908 3.78125.25l.03125-.03125c.6155.01755 1.26167.136 1.875.125 2.73259.07516 5.37421-.13509 8.09375-.375v.15625l3.46875-.25-.03125-.1875c4.08787-.58077 7.95828-1.443 11.0625-2.8125v-14.90625c0-3.63076-1.54514-6.87332-3.96875-9.1875l4.53125.34375-10.46875-5.5c0,0 10.46111-9.30486 9.9375-8.78125-.31904.31904-6.3157,2.14436-11.71875,3.75 3.73048-3.79362 6.15625-9.44593 6.15625-15.84375 0-2.9928-.5333-5.80615-1.46875-8.375-.00165-.07908-.02471-.2429-.03125-.375 .00607-.7452.03473-3.66679-.125-4.6875 .74136-6.30151-6.7146-18.05739 5.71875-12.6875-.43716.32154-.75.77432-.75,1.34375 0,.97094.80194,1.78125 1.8125,1.78125s1.84376-.81031 1.84375-1.78125-.83318-1.75-1.84375-1.75c-.28355,0-.47909.17054-.71875.28125-14.29399-18.9916-16.37481,4.62579-16.5625,3.875-.00217-.0087-.05835.00801-.0625,0-.44306-11.04235-5.48748-16.01466-10.25-15.5zm-.65625,4.625c4.42822,1.26213 3.15625,10.875 3.15625,10.875-.15135-.07239-.49596-.064-.53125-.1875-.21391-.74869-3.87806-5.54583-8.34375-6.625 .20889-.28577.40625-.59328.40625-.96875 0-.51003-.2324-.95988-.59375-1.28125 2.58612-1.65732 4.56226-2.19556 5.90625-1.8125z" fill="url(#d)"/>
 </g>
</svg>
